# xmcd
#
# Track frame offsets:
#	182
#	16077
#	33775
#	48992
#
# Disc length: 893 seconds
#
# Revision: 1
# Processed by: cddbd v1.5.1PL0 Copyright (c) Steve Scherf et al.
# Submitted via: EasyCDDAExtractor 7.0.6.1
#
DISCID=20037b04
DTITLE=Crystal Waters - say... if you feel alright
DYEAR=1996
DGENRE=R&B
TTITLE0=Jam and Lewis radio
TTITLE1=can you feel it radio mix
TTITLE2=X-mix radio edit
TTITLE3=Johnny "D" radio mix
EXTD=
EXTT0=
EXTT1=
EXTT2=
EXTT3=
PLAYORDER=
